<?xml version="1.0" encoding="UTF-8" standalone="no"?>
<svg width="100px" height="90px" viewBox="0 0 100 90" version="1.1" xmlns="http://www.w3.org/2000/svg" xmlns:xlink="http://www.w3.org/1999/xlink" xmlns:sketch="http://www.bohemiancoding.com/sketch/ns">
    <!-- Generator: Sketch 3.3.1 (12002) - http://www.bohemiancoding.com/sketch -->
    <title>Imported Layers</title>
    <desc>Created with Sketch.</desc>
    <defs>
        <path id="path-1" d="M0.00637561606,0.0117190047 L34.9077731,0.0117190047 L34.9077731,23.6519345 L0.00637561606,23.6519345"></path>
        <path id="path-3" d="M0.0586556678,24.8181886 L36.6392841,24.8181886 L36.6392841,0.0531616668 L0.0586556678,0.0531616668"></path>
    </defs>
    <g id="Welcome" stroke="none" stroke-width="1" fill="none" fill-rule="evenodd" sketch:type="MSPage">
        <g id="ruby-1280-v3" sketch:type="MSArtboardGroup" transform="translate(-737.000000, -910.000000)">
            <g id="section-healthapps-copy-4" sketch:type="MSLayerGroup" transform="translate(0.000000, 881.000000)">
                <g id="content" transform="translate(550.000000, 29.000000)">
                    <g id="Imported-Layers" transform="translate(187.000000, 0.000000)">
                        <path d="M82.6387165,5.31083986 C79.3836457,5.31083986 75.7050215,5.9316275 71.9527589,7.23201088 C67.9565228,8.61698417 64.4586473,10.5711815 61.7617617,12.7721171 C63.1133923,14.7023437 63.734271,17.1475673 63.3039169,19.6556474 C62.683357,23.2745826 60.0448083,26.0387762 56.7447894,26.9868437 L59.3452969,41.3117289 L63.9658122,29.2562822 C65.0936586,29.4450647 66.3088511,29.5411605 67.5897123,29.5411605 C68.0495005,29.5411605 68.518002,29.5288023 68.9937292,29.5038728 L68.9116963,28.7328688 C68.8677046,28.3176965 69.1298486,27.9406641 69.4975092,27.8908051 L81.71744,26.2339509 C90.200941,22.313198 95.5419008,15.8671062 93.9962389,10.8820547 C92.8786997,7.277715 88.4304324,5.31083986 82.6387165,5.31083986" id="Fill-1" fill="#E67E22" sketch:type="MSShapeGroup"></path>
                        <path d="M59.8233619,58.3164309 C53.9257045,56.9828081 54.7392331,56.2470677 52.8424873,56.3142922 C51.8574546,56.3468923 48.818411,58.7663341 48.818411,58.7663341 C48.818411,58.7663341 46.2892041,56.3029993 45.2980083,56.3010817 C42.4706351,56.2968202 43.6396043,56.9931422 37.7361026,58.3177093 C31.6614156,59.6732785 29.8350142,57.5624727 29.8350142,57.5624727 C29.8350142,57.5624727 35.0868216,75.9373394 49.0450641,75.9368067 C62.6182194,75.9362741 69.6341599,57.1264192 69.6341599,57.1264192 C69.6341599,57.1264192 65.8960299,59.6907505 59.8233619,58.3164309 M59.0209906,65.8074317 C54.7732364,67.8480301 50.138376,67.9869536 48.7414786,67.9816267 C47.3392681,67.9866339 42.7040889,67.8335411 38.4629229,65.7800519 C35.8171484,64.5003366 33.4519011,61.8753861 31.0665707,60.047754 L35.4308924,61.491855 C37.9401223,62.2252516 39.0993156,63.0997024 48.5765626,63.1146175 C58.0555098,63.1236731 62.7200168,61.1774661 65.2261652,60.4530185 L65.4368793,60.1391622 C63.0433668,61.9592302 61.6694215,64.5311256 59.0209906,65.8074317" id="Fill-3" fill="#D82828" sketch:type="MSShapeGroup"></path>
                        <g id="Group-6" transform="translate(0.000000, 28.338684)">
                            <mask id="mask-2" sketch:name="Clip 5" fill="white">
                                <use xlink:href="#path-1"></use>
                            </mask>
                            <g id="Clip-5"></g>
                            <path d="M13.3863498,0.0117190047 L0,0.0117190047 L0,13.9820511 L27.1931714,13.8985265 L34.9077731,23.6519345 L29.7807152,3.90370701 C28.8985424,4.20925342 27.9743969,4.37193451 27.0327184,4.37193451 C26.4982292,4.37193451 25.9581083,4.3195186 25.4169247,4.21117108 C24.0388353,3.93492217 22.7933587,3.32382935 21.7287371,2.46194982 C20.977052,2.71252345 20.1790374,2.84675932 19.3588144,2.84675932 C18.865873,2.84675932 18.3647496,2.79817872 17.8612884,2.69728874 C16.045513,2.33357345 14.4957069,1.35216007 13.3863498,0.0117190047" id="Fill-4" fill="#3498DB" sketch:type="MSShapeGroup" mask="url(#mask-2)"></path>
                        </g>
                        <g id="Group-9" transform="translate(63.012339, 24.077228)">
                            <mask id="mask-4" sketch:name="Clip 8" fill="white">
                                <use xlink:href="#path-3"></use>
                            </mask>
                            <g id="Clip-8"></g>
                            <path d="M34.2596917,0.0531616668 C34.2329141,0.0531616668 34.205924,0.0549727857 34.1787214,0.05870156 L18.7051012,2.15672301 C17.6074326,2.66404938 16.4568464,3.12918733 15.2621623,3.54318781 C12.040776,4.65958281 8.87305114,5.27504363 5.98139047,5.42664494 L6.60280052,11.272191 C6.60280052,11.272191 -0.30974868,17.3956906 0.0740634066,24.8181886 C0.0740634066,24.8181886 3.086542,18.5295576 7.16364221,16.5484066 L7.60972281,20.7457279 C7.65063302,21.1302178 7.93997973,21.4127523 8.27491209,21.4127523 C8.30147716,21.4127523 8.32836101,21.4109412 8.35535111,21.407319 L36.0486896,17.6523368 C36.3876598,17.6063131 36.6368402,17.2825489 36.6392841,16.9072212 L36.6392841,16.8960348 C36.6390716,16.8676962 36.6374777,16.8390379 36.6343962,16.810273 L34.9244559,0.720186108 C34.8835457,0.335802753 34.594199,0.0531616668 34.2596917,0.0531616668" id="Fill-7" fill="#F1C40F" sketch:type="MSShapeGroup" mask="url(#mask-4)"></path>
                        </g>
                        <path d="M81.71744,26.2339509 L69.4975092,27.8908051 C69.1298486,27.9406641 68.8677046,28.3176965 68.9116963,28.7328688 L68.9937292,29.5038728 C71.8853899,29.3522715 75.0531148,28.7368107 78.274501,27.6204157 C79.4691852,27.2064152 80.6197714,26.7412772 81.71744,26.2339509" id="Fill-10" fill="#D96102" sketch:type="MSShapeGroup"></path>
                        <path d="M23.5823412,1.50994049 L23.5580076,1.50994049 C20.6294746,1.51430848 17.9848691,3.22794658 16.7512936,5.87452399 C16.1121381,5.53936046 15.4184711,5.28718878 14.6795372,5.13942279 C14.1741634,5.03810666 13.671446,4.98941952 13.1768045,4.98941952 C9.58637632,4.98941952 6.41865147,7.55769268 5.75324968,11.2667577 C5.66994163,11.7312564 5.6293502,12.193944 5.62860638,12.6513048 L5.62860638,12.6768735 C5.63455696,16.3649509 8.23283302,19.6792985 11.9381286,20.4214311 C11.9850956,20.4311259 12.0318501,20.4375181 12.0788172,20.4459345 C11.9028502,20.9018037 11.7659869,21.3805783 11.6763033,21.8811929 C11.2486057,24.2650515 11.9462043,26.6102375 13.3863498,28.3504031 L28.77018,28.3504031 L29.7807152,32.2423911 C31.114069,31.7804493 32.3513636,30.9920799 33.4080157,29.9450401 C37.5437715,32.4042199 38.4681296,38.5574432 38.4681296,38.5574432 C40.6041735,33.7303851 37.9837953,26.3960993 37.6527946,24.8335298 C37.9611619,24.4293307 38.2461519,23.9988171 38.5043644,23.5444393 C36.4180503,21.8250482 35.1353826,19.227158 35.1285819,16.4220544 L35.1285819,16.3774156 C35.129857,15.8640167 35.1738488,15.3433733 35.2635325,14.8204926 C35.5805068,12.9725121 36.4240008,11.3481515 37.6130532,10.0746153 C36.321991,8.50309675 34.5948366,7.38414487 32.5843923,6.98143725 C32.0442714,6.8733028 31.5056381,6.82163264 30.9723178,6.82163264 C30.9614793,6.82163264 30.950747,6.82163264 30.9400147,6.82173918 C30.0495536,4.26220201 27.879719,2.22234944 25.0723227,1.65994375 C24.5716243,1.55958645 24.0726261,1.51079278 23.5823412,1.50994049" id="Fill-11" fill="#9B59B6" sketch:type="MSShapeGroup"></path>
                        <path d="M28.77018,28.3504031 L13.3863498,28.3504031 C14.4957069,29.6908442 16.045513,30.6722576 17.8612884,31.0359729 C18.3647496,31.1368628 18.865873,31.1854434 19.3588144,31.1854434 C20.1790374,31.1854434 20.977052,31.0512076 21.7287371,30.8006339 C22.7933587,31.6625135 24.0388353,32.2736063 25.4169247,32.5498552 C25.9581083,32.6582027 26.4982292,32.7106186 27.0327184,32.7106186 C27.9743969,32.7106186 28.8985424,32.5479375 29.7807152,32.2423911 L28.77018,28.3504031" id="Fill-13" fill="#1F359C" sketch:type="MSShapeGroup"></path>
                        <g id="Group-17" transform="translate(37.574849, 0.000000)" sketch:type="MSShapeGroup">
                            <path d="M10.5895301,0.084909516 L10.5694469,0.084909516 C7.20747831,0.0897036543 4.2351661,2.51585724 3.64574039,5.95154981 C3.54341176,6.54826022 3.51939694,7.14038957 3.56562015,7.71739075 C2.22355297,8.21981644 1.01441738,9.02896045 0.0382043047,10.0746153 C2.03154067,12.501195 2.98501405,16.0067755 2.3366139,19.6219819 C2.07893275,21.0576665 1.59183568,22.3793572 0.929515431,23.5444393 C2.125581,24.5301141 3.58591586,25.2272884 5.2209426,25.5091837 C5.74788727,25.6000593 6.27228169,25.6438457 6.78966294,25.6438457 C7.3294651,25.6438457 7.86151026,25.5962239 8.38133549,25.5046026 L8.38133549,25.5055615 C8.38133549,25.5055615 8.60575717,31.2893164 12.1270099,34.2965196 C12.1270099,34.2965196 10.9130926,29.902319 12.6913582,26.4545878 C13.4293358,26.803601 14.2249064,27.0616322 15.0681879,27.2070544 C15.5974703,27.2983561 16.1245212,27.3424622 16.6439214,27.3424622 C17.5123866,27.3424622 18.3609811,27.2191996 19.1699405,26.9868437 L18.5526746,23.5859885 C18.5043262,23.3813321 18.46671,23.1746514 18.4400387,22.9658401 L18.4389761,22.9594479 L18.4394011,22.9593414 C18.0308304,19.7063587 20.2592145,15.977691 24.1869128,12.7721171 C23.7733478,12.1814793 23.2913512,11.6391024 22.7500614,11.1578775 C22.7527179,11.143495 22.7561182,11.1294322 22.758456,11.1155825 C23.4180135,7.27121628 20.8442835,3.61914826 17.0097755,2.95798333 C16.7347739,2.91046809 16.4607287,2.88170326 16.1885961,2.86678816 C15.147033,1.49736919 13.6082781,0.502958375 11.7818766,0.18824983 C11.3812754,0.119107702 10.9826931,0.085442198 10.5895301,0.084909516" id="Fill-14" fill="#D82828"></path>
                            <path d="M24.1869128,12.7721171 C20.2592145,15.977691 18.0308304,19.7063587 18.4394011,22.9593414 L18.4389761,22.9594479 L18.4400387,22.9658401 C18.46671,23.1746514 18.5043262,23.3813321 18.5526746,23.5859885 L19.1699405,26.9868437 C22.4699593,26.0387762 25.1085081,23.2745826 25.729068,19.6556474 C26.1594221,17.1475673 25.5385434,14.7023437 24.1869128,12.7721171" id="Fill-16" fill="#C31305"></path>
                        </g>
                        <path d="M37.6130532,10.0746153 C36.4240008,11.3481515 35.5805068,12.9725121 35.2635325,14.8204926 C35.1738488,15.3433733 35.129857,15.8640167 35.1285819,16.3774156 L35.1285819,16.4220544 C35.1353826,19.227158 36.4180503,21.8250482 38.5043644,23.5444393 C39.1666846,22.3793572 39.6537817,21.0576665 39.9114628,19.6219819 C40.559863,16.0067755 39.6063896,12.501195 37.6130532,10.0746153" id="Fill-18" fill="#830E1D" sketch:type="MSShapeGroup"></path>
                        <path d="M60.7632339,88.0311392 C60.7632339,88.7195775 55.8663358,89.2775086 49.8257583,89.2775086 C43.7852871,89.2775086 38.8884952,88.7195775 38.8884952,88.0311392 C38.8884952,87.342701 43.7852871,86.7847698 49.8257583,86.7847698 C55.8663358,86.7847698 60.7632339,87.342701 60.7632339,88.0311392" id="Fill-19" fill="#CCC6C6" sketch:type="MSShapeGroup"></path>
                    </g>
                </g>
            </g>
        </g>
    </g>
</svg>